<svg width="54" height="53" viewBox="0 0 54 53" fill="none" xmlns="http://www.w3.org/2000/svg">
<path fill-rule="evenodd" clip-rule="evenodd" d="M26.3438 8.28125C25.7915 8.28125 25.3438 7.83353 25.3438 7.28125V4.3125C25.3438 3.76022 25.7915 3.3125 26.3438 3.3125H27.6562C28.2085 3.3125 28.6562 3.76022 28.6562 4.3125V7.28125C28.6562 7.83353 28.2085 8.28125 27.6562 8.28125H26.3438ZM38.8885 35.4936C38.5961 35.8794 38.5947 36.4143 38.8633 36.8171C39.7394 38.1306 40.25 39.7087 40.25 41.4061C40.25 45.9797 36.5424 49.6873 31.9688 49.6873L31.908 49.6871H19.6111C19.6111 49.6871 19.6111 49.6871 19.6111 49.687V49.687C19.6111 49.687 19.611 49.687 19.611 49.687L19.5469 49.6871C12.6865 49.6871 7.125 44.1257 7.125 37.2652C7.125 33.3836 8.90536 29.9179 11.694 27.64C11.9528 27.4286 12.1023 27.1102 12.0963 26.7761C12.0946 26.6843 12.0938 26.5922 12.0938 26.5C12.0938 18.2675 18.7675 11.5938 27 11.5938C35.2325 11.5938 41.9062 18.2675 41.9062 26.5C41.9062 29.8781 40.7825 32.9938 38.8885 35.4936ZM36.2881 33.4399C36.0098 33.8118 35.5027 33.9001 35.0721 33.7259C34.1137 33.3382 33.0662 33.1248 31.9688 33.1248C30.8799 33.1248 29.84 33.335 28.8876 33.7169C28.422 33.9037 28.2298 34.4361 28.3586 34.921C28.5573 35.6691 28.6632 36.455 28.6632 37.2656V37.2656C28.6632 37.429 28.8622 37.5245 28.993 37.4266C29.8225 36.8053 30.8527 36.4373 31.9688 36.4373C34.7129 36.4373 36.9375 38.6619 36.9375 41.4061C36.9375 44.1502 34.713 46.3748 31.9689 46.3748C31.9688 46.3748 31.9688 46.3748 31.9688 46.3747V46.3747C31.9688 46.3746 31.9687 46.3746 31.9686 46.3746H31.9217L31.8581 46.3736H19.6849C19.6389 46.3743 19.593 46.3746 19.5469 46.3746C14.5159 46.3746 10.4375 42.2962 10.4375 37.2652C10.4375 32.2343 14.5159 28.1558 19.5469 28.1558C23.0555 28.1558 26.1008 30.1394 27.6225 33.0463C27.903 33.5821 28.5613 33.8316 29.1294 33.6243C29.4118 33.5212 29.7014 33.4331 29.9972 33.3608C30.6329 33.2056 31.061 32.5494 30.7811 31.9579C28.7908 27.7524 24.5086 24.8433 19.5469 24.8433C18.6479 24.8433 17.7713 24.9388 16.9265 25.1202C16.2189 25.2722 15.5188 24.7218 15.6732 24.0147C16.8109 18.806 21.45 14.9062 27 14.9062C33.4031 14.9062 38.5938 20.0969 38.5938 26.5C38.5938 29.1027 37.7361 31.505 36.2881 33.4399ZM50.1875 25.8438C50.1875 25.2915 49.7398 24.8438 49.1875 24.8438H46.2187C45.6665 24.8438 45.2188 25.2915 45.2188 25.8438V27.1562C45.2188 27.7085 45.6665 28.1562 46.2188 28.1562H49.1875C49.7398 28.1562 50.1875 27.7085 50.1875 27.1562V25.8438ZM42.4497 16.8223C42.1736 16.344 42.3375 15.7324 42.8158 15.4563L45.3868 13.9719C45.8651 13.6958 46.4767 13.8596 46.7528 14.3379L47.409 15.4746C47.6852 15.9529 47.5213 16.5645 47.043 16.8406L44.472 18.325C43.9937 18.6011 43.3821 18.4372 43.106 17.959L42.4497 16.8223ZM38.0255 6.09106C37.5472 5.81491 36.9356 5.97879 36.6595 6.45708L35.1751 9.02809C34.899 9.50639 35.0629 10.118 35.5411 10.3941L36.6778 11.0504C37.1561 11.3265 37.7677 11.1626 38.0438 10.6843L39.5282 8.11333C39.8043 7.63504 39.6405 7.02345 39.1622 6.74731L38.0255 6.09106ZM17.3223 11.0504C16.844 11.3265 16.2324 11.1626 15.9563 10.6843L14.4719 8.11333C14.1958 7.63504 14.3596 7.02345 14.8379 6.74731L15.9746 6.09106C16.4529 5.81491 17.0645 5.97879 17.3406 6.45708L18.825 9.02809C19.1011 9.50639 18.9372 10.118 18.459 10.3941L17.3223 11.0504ZM6.59096 15.4746C6.31481 15.9529 6.47869 16.5645 6.95698 16.8406L9.52799 18.325C10.0063 18.6011 10.6179 18.4372 10.894 17.959L11.5503 16.8223C11.8264 16.344 11.6625 15.7324 11.1842 15.4563L8.61323 13.9719C8.13494 13.6958 7.52335 13.8596 7.24721 14.3379L6.59096 15.4746ZM3.8125 25.8438C3.8125 25.2915 4.26022 24.8438 4.8125 24.8438H7.78125C8.33353 24.8438 8.78125 25.2915 8.78125 25.8438V27.1562C8.78125 27.7085 8.33353 28.1562 7.78125 28.1562H4.8125C4.26022 28.1562 3.8125 27.7085 3.8125 27.1562V25.8438ZM42.4498 36.1777C42.1737 36.656 42.3376 37.2676 42.8158 37.5437L45.3869 39.0281C45.8651 39.3042 46.4767 39.1404 46.7529 38.6621L47.4091 37.5254C47.6853 37.0471 47.5214 36.4355 47.0431 36.1594L44.4721 34.675C43.9938 34.3989 43.3822 34.5628 43.1061 35.041L42.4498 36.1777Z" fill="white"/>
</svg>
