<svg width="70" height="70" viewBox="0 0 70 70" fill="none" xmlns="http://www.w3.org/2000/svg">
<path fill-rule="evenodd" clip-rule="evenodd" d="M33.8125 10.9375C33.2602 10.9375 32.8125 10.4898 32.8125 9.9375V5.375C32.8125 4.82272 33.2602 4.375 33.8125 4.375H36.1875C36.7398 4.375 37.1875 4.82272 37.1875 5.375V9.9375C37.1875 10.4898 36.7398 10.9375 36.1875 10.9375H33.8125ZM50.5383 47.091C50.2408 47.4729 50.2386 48.0089 50.517 48.405C51.7665 50.1827 52.5 52.3493 52.5 54.6872C52.5 60.7279 47.6032 65.6247 41.5625 65.6247L41.4823 65.6245H25.2411C25.2411 65.6245 25.241 65.6244 25.241 65.6244V65.6244C25.241 65.6243 25.241 65.6243 25.2409 65.6243L25.1563 65.6245C16.0953 65.6245 8.75 58.2792 8.75 49.2182C8.75 44.03 11.1583 39.4042 14.918 36.3978C15.179 36.1891 15.3286 35.8702 15.3197 35.5362C15.3149 35.358 15.3125 35.1793 15.3125 35C15.3125 24.1269 24.1269 15.3125 35 15.3125C45.8731 15.3125 54.6875 24.1269 54.6875 35C54.6875 39.558 53.1386 43.7542 50.5383 47.091ZM47.1132 44.3683C46.8288 44.7355 46.3223 44.8259 45.8959 44.6417C44.5671 44.0678 43.102 43.7497 41.5625 43.7497C40.0248 43.7497 38.5611 44.0671 37.2335 44.6399C36.7728 44.8386 36.5788 45.3695 36.719 45.8512C37.0299 46.9198 37.1966 48.0498 37.1966 49.2187V49.2187C37.1966 49.4346 37.4595 49.5607 37.6322 49.4313C38.7278 48.6108 40.0884 48.1247 41.5625 48.1247C45.1869 48.1247 48.125 51.0629 48.125 54.6872C48.125 58.3116 45.187 61.2497 41.5626 61.2497C41.5626 61.2497 41.5625 61.2497 41.5625 61.2496V61.2496C41.5625 61.2495 41.5624 61.2495 41.5624 61.2495H41.5004L41.4163 61.2482H25.3385C25.2779 61.2491 25.2171 61.2495 25.1563 61.2495C18.5116 61.2495 13.125 55.8629 13.125 49.2182C13.125 42.5736 18.5116 37.187 25.1563 37.187C29.9207 37.187 34.0382 39.9563 35.9871 43.9731C36.2511 44.5172 36.9097 44.7671 37.4705 44.5408C38.0764 44.2962 38.7092 44.1043 39.3632 43.9708C40.0044 43.8399 40.4314 43.1842 40.1666 42.5858C37.6191 36.8288 31.8568 32.812 25.1563 32.812C23.7974 32.812 22.4771 32.9772 21.2144 33.2886C20.5117 33.4619 19.8112 32.9135 19.9426 32.2018C21.2575 25.0812 27.4989 19.6875 35 19.6875C43.4569 19.6875 50.3125 26.5431 50.3125 35C50.3125 38.5288 49.1188 41.7788 47.1132 44.3683ZM65.625 33.8125C65.625 33.2602 65.1773 32.8125 64.625 32.8125H60.0625C59.5102 32.8125 59.0625 33.2602 59.0625 33.8125V36.1875C59.0625 36.7398 59.5102 37.1875 60.0625 37.1875H64.625C65.1773 37.1875 65.625 36.7398 65.625 36.1875V33.8125ZM55.2449 21.9403C54.9688 21.4621 55.1327 20.8505 55.611 20.5743L59.5622 18.2931C60.0405 18.0169 60.6521 18.1808 60.9282 18.6591L62.1157 20.7159C62.3919 21.1942 62.228 21.8058 61.7497 22.0819L57.7985 24.3632C57.3202 24.6393 56.7086 24.4754 56.4324 23.9972L55.2449 21.9403ZM49.2842 7.88441C48.8059 7.60827 48.1943 7.77215 47.9182 8.25044L45.637 12.2017C45.3608 12.68 45.5247 13.2916 46.003 13.5677L48.0598 14.7552C48.5381 15.0313 49.1497 14.8675 49.4258 14.3892L51.7071 10.4379C51.9832 9.95965 51.8193 9.34806 51.341 9.07191L49.2842 7.88441ZM21.9403 14.7552C21.4621 15.0313 20.8505 14.8675 20.5743 14.3892L18.2931 10.4379C18.0169 9.95965 18.1808 9.34806 18.6591 9.07191L20.7159 7.88441C21.1942 7.60827 21.8058 7.77215 22.0819 8.25044L24.3632 12.2017C24.6393 12.68 24.4754 13.2916 23.9972 13.5677L21.9403 14.7552ZM7.88428 20.7159C7.60814 21.1942 7.77201 21.8058 8.25031 22.0819L12.2015 24.3632C12.6798 24.6393 13.2914 24.4754 13.5676 23.9972L14.7551 21.9403C15.0312 21.4621 14.8673 20.8505 14.389 20.5743L10.4378 18.2931C9.95951 18.0169 9.34792 18.1808 9.07178 18.6591L7.88428 20.7159ZM4.375 33.8125C4.375 33.2602 4.82272 32.8125 5.375 32.8125H9.9375C10.4898 32.8125 10.9375 33.2602 10.9375 33.8125V36.1875C10.9375 36.7398 10.4898 37.1875 9.9375 37.1875H5.375C4.82272 37.1875 4.375 36.7398 4.375 36.1875V33.8125ZM55.245 48.0597C54.9689 48.5379 55.1328 49.1495 55.6111 49.4257L59.5623 51.7069C60.0406 51.9831 60.6522 51.8192 60.9283 51.3409L62.1158 49.2841C62.392 48.8058 62.2281 48.1942 61.7498 47.9181L57.7986 45.6368C57.3203 45.3607 56.7087 45.5246 56.4325 46.0028L55.245 48.0597Z" fill="white"/>
</svg>
